<svg width="800.0000000000001" height="800.0000000000001" xmlns="http://www.w3.org/2000/svg" clip-rule="evenodd" version="1.1">

 <g>
  <title>Layer 1</title>
  <g id="svg_3">
   <path id="svg_4" d="m152.5,-0.5c163.333,0 326.667,0 490,0c60.172,5.49659 105.672,34.1633 136.5,86c11.348,21.088 18.182,43.421 20.5,67c0,163.333 0,326.667 0,490c-6.412,65.575 -39.079,113.075 -98,142.5c-19.085,7.855 -38.751,12.689 -59,14.5c-163.333,0 -326.667,0 -490,0c-55.3627,-6.092 -98.1961,-32.425 -128.5,-79c-14.35272,-24.217 -22.51939,-50.217 -24.5,-78c0,-163.333 0,-326.667 0,-490c1.25824,-12.456 3.75824,-24.79 7.5,-37c25.2916,-67.8828 73.7916,-106.5495 145.5,-116z" fill="#070707"/>
  </g>
  <g id="svg_7">
   <path id="svg_8" d="m768.5,645.5c-0.982,3.816 -1.649,7.816 -2,12c-2.937,13.479 -7.271,26.479 -13,39c-1.406,0.473 -2.073,1.473 -2,3c-16.164,27.829 -39.164,47.829 -69,60c-4.893,1.296 -9.56,2.962 -14,5c-7.292,1.358 -14.626,2.525 -22,3.5c-164.667,0.667 -329.333,0.667 -494,0c-61.5648,-9.231 -101.0648,-43.731 -118.5,-103.5c-1.5172,-6.252 -2.5172,-12.586 -3,-19c-0.6667,-164.333 -0.6667,-328.667 0,-493c8.9576,-59.7905 42.1243,-98.9572 99.5,-117.5c7.254,-1.7645 14.587,-3.0978 22,-4c164.667,-0.6667 329.333,-0.6667 494,0c59.705,8.9331 98.872,42.0997 117.5,99.5c1.978,7.556 3.311,15.223 4,23c0.5,164 0.667,328 0.5,492z" fill="#fff100"/>
  </g>
  <g id="svg_9">
   <path id="svg_10" d="m449.5,254.5c-6.369,-0.153 -12.703,0.18 -19,1c3.365,-1.539 7.031,-2.206 11,-2c2.855,0.003 5.522,0.336 8,1z" fill="#626262"/>
  </g>
  <g id="svg_11">
   <path id="svg_12" d="m120.5,254.5c-6.369,-0.153 -12.703,0.18 -19,1c3.365,-1.539 7.031,-2.206 11,-2c2.855,0.003 5.522,0.336 8,1z" fill="#666666"/>
  </g>
  <g id="svg_13">
   <path id="svg_14" d="m430.5,255.5c6.297,-0.82 12.631,-1.153 19,-1c16.319,5.628 22.485,16.962 18.5,34c-27.333,80.667 -54.667,161.333 -82,242c-7.836,13.159 -19.336,17.993 -34.5,14.5c-6.43,-1.632 -11.597,-5.132 -15.5,-10.5c-20.067,-56.702 -39.234,-113.702 -57.5,-171c-0.667,-2.667 -1.333,-2.667 -2,0c-18.464,56.891 -37.631,113.558 -57.5,170c-8.19,10.954 -19.023,14.788 -32.5,11.5c-6.878,-1.882 -12.378,-5.715 -16.5,-11.5c-28.197,-82.259 -56.197,-164.592 -84,-247c-2.7453,-14.51 2.4214,-24.844 15.5,-31c6.297,-0.82 12.631,-1.153 19,-1c8.818,2.174 14.985,7.507 18.5,16c18.469,55.741 37.136,111.407 56,167c18.465,-56.396 37.132,-112.729 56,-169c8.146,-13.392 19.98,-18.225 35.5,-14.5c6.546,2.018 11.713,5.852 15.5,11.5c19.728,57.185 39.062,114.518 58,172c19.071,-58.212 38.737,-116.212 59,-174c3.107,-3.796 6.94,-6.463 11.5,-8z" fill="#070707"/>
  </g>
  <g id="svg_15">
   <path id="svg_16" d="m682.5,335.5c-2.015,-1.424 -4.348,-2.09 -7,-2c-8.441,-5.728 -17.108,-11.228 -26,-16.5c-44.454,-17.91 -83.288,-9.744 -116.5,24.5c-28.667,38.667 -28.667,77.333 0,116c36.145,36.594 77.312,43.427 123.5,20.5c6.279,-3.946 12.279,-8.279 18,-13c16.646,-5.664 28.979,-0.83 37,14.5c0.807,5.964 1.14,11.964 1,18c-0.596,3.858 -2.262,7.191 -5,10c-39.391,33.431 -84.391,44.765 -135,34c-2.015,-1.424 -4.348,-2.09 -7,-2c-46.778,-13.606 -79.612,-42.94 -98.5,-88c-10.362,-27.92 -12.196,-56.253 -5.5,-85c1.424,-2.015 2.09,-4.348 2,-7c1.424,-2.015 2.09,-4.348 2,-7c19.096,-50.256 54.762,-82.089 107,-95.5c46.925,-9.55 89.591,-0.217 128,28c11.594,8.447 15.427,19.613 11.5,33.5c-5.841,12.506 -15.674,18.173 -29.5,17z" fill="#070707"/>
  </g>
  <g id="svg_17">
   <path id="svg_18" d="m675.5,333.5c2.652,-0.09 4.985,0.576 7,2c-2.652,0.09 -4.985,-0.576 -7,-2z" fill="#777777"/>
  </g>
  <g id="svg_19">
   <path id="svg_20" d="m465.5,352.5c0.09,2.652 -0.576,4.985 -2,7c-0.09,-2.652 0.576,-4.985 2,-7z" fill="#707070"/>
  </g>
  <g id="svg_21">
   <path id="svg_22" d="m278.5,363.5c-0.667,0 -1.333,0 -2,0c0.667,-2.667 1.333,-2.667 2,0z" fill="#c9c9c9"/>
  </g>
  <g id="svg_23">
   <path id="svg_24" d="m463.5,359.5c0.09,2.652 -0.576,4.985 -2,7c-0.09,-2.652 0.576,-4.985 2,-7z" fill="#717171"/>
  </g>
  <g id="svg_25">
   <path id="svg_26" d="m711.5,479.5c1.53,3.195 2.196,6.695 2,10.5c-0.003,2.69 -0.336,5.19 -1,7.5c0.14,-6.036 -0.193,-12.036 -1,-18z" fill="#5e5e5e"/>
  </g>
  <g id="svg_27">
   <path id="svg_28" d="m565.5,539.5c2.652,-0.09 4.985,0.576 7,2c-2.652,0.09 -4.985,-0.576 -7,-2z" fill="#6f6f6f"/>
  </g>
  <g id="svg_33">
   <path id="svg_34" d="m768.5,645.5c0.417,4.317 -0.25,8.317 -2,12c0.351,-4.184 1.018,-8.184 2,-12z" fill="#6e6e6e"/>
  </g>
  <g id="svg_35">
   <path id="svg_36" d="m753.5,696.5c0.073,1.527 -0.594,2.527 -2,3c-0.073,-1.527 0.594,-2.527 2,-3z" fill="#a1a1a1"/>
  </g>
  <g id="svg_37">
   <path id="svg_38" d="m682.5,759.5c-4.13,2.824 -8.797,4.491 -14,5c4.44,-2.038 9.107,-3.704 14,-5z" fill="#616161"/>
  </g>
 </g>
</svg>